# xmcd
#
# Track frame offsets: 
#        150
#        20138
#        40774
#        71301
#        87056
#        106576
#        126164
#        143081
#        163501
#        184851
#
# Disc length: 2821 seconds
#
# Revision: 0
# Processed by: cddbd v1.5.2PL0 Copyright (c) Steve Scherf et al.
# Submitted via: ExactAudioCopyFreeDBPlugin 1.0
#
DISCID=790b030a
DTITLE=Tinsley Ellis - Get It!
DYEAR=2013
DGENRE=Blues
TTITLE0=Front Street Freeze
TTITLE1=Sassy Start
TTITLE2=The Milky Way
TTITLE3=Detour
TTITLE4=Anthem For A Fallen Hero
TTITLE5=Get It!
TTITLE6=Fuzzbuster
TTITLE7=Freddy's Midnight Dream
TTITLE8=Berry Tossin'
TTITLE9=Catalunya
EXTD=
EXTT0=
EXTT1=
EXTT2=
EXTT3=
EXTT4=
EXTT5=
EXTT6=
EXTT7=
EXTT8=
EXTT9=
PLAYORDER=
